<svg width="7" height="8" viewBox="0 0 7 8" fill="none" xmlns="http://www.w3.org/2000/svg">
<path d="M3.2404 6.41728V5.67648C3.54904 5.61662 3.85363 5.53753 4.1524 5.43968C4.66871 5.22958 5.09529 4.84554 5.35827 4.35405C5.62125 3.86257 5.70407 3.29459 5.5924 2.74848C5.47709 2.15762 5.14534 1.63111 4.66214 1.27205C4.17894 0.91299 3.5791 0.747261 2.9801 0.807321C2.3811 0.867381 1.82611 1.1489 1.42381 1.59675C1.02152 2.04459 0.800912 2.62649 0.8052 3.22848C0.794 4.18848 0.8052 5.14848 0.8052 6.09888V6.39968C0.5268 6.12928 0.274 5.88608 0.0243998 5.63808C0.00488506 5.60303 -0.00296068 5.56268 0.00199994 5.52288C0.00999994 4.64128 -0.0219999 3.76288 0.0340001 2.87808C0.13 1.38848 1.3972 0.145276 2.8852 0.0140759C4.8052 -0.153924 6.3492 1.19968 6.4452 3.12448C6.5316 4.85888 5.0436 6.42848 3.3044 6.43488C3.28265 6.43067 3.26125 6.42478 3.2404 6.41728Z" fill="#E8D9FF"/>
<path d="M2.3764 7.99968C2.1364 7.75648 1.8964 7.51968 1.6596 7.27008C1.62819 7.22286 1.61302 7.16669 1.6164 7.11008C1.6164 5.80928 1.6052 4.50848 1.6164 3.20768C1.61451 2.88954 1.70695 2.57798 1.88203 2.31235C2.0571 2.04672 2.30697 1.83892 2.60008 1.71521C2.89318 1.5915 3.21637 1.55743 3.52883 1.61729C3.84129 1.67715 4.129 1.82826 4.35563 2.05154C4.58225 2.27482 4.73763 2.56025 4.80214 2.87178C4.86664 3.18331 4.83738 3.50697 4.71805 3.80189C4.59872 4.0968 4.39467 4.34973 4.13167 4.52875C3.86867 4.70776 3.55853 4.80482 3.2404 4.80768V4.08448C3.44036 3.99567 3.63024 3.88571 3.8068 3.75648C3.9303 3.63194 4.00797 3.46924 4.02714 3.29491C4.04632 3.12057 4.00587 2.94488 3.9124 2.79648C3.82373 2.65209 3.69152 2.53959 3.5348 2.47518C3.37809 2.41077 3.20497 2.39778 3.0404 2.43808C2.86723 2.47712 2.7124 2.57365 2.60112 2.71195C2.48984 2.85026 2.42868 3.02217 2.4276 3.19968C2.4276 4.12128 2.4276 5.04448 2.4276 5.96768V7.96768L2.3764 7.99968Z" fill="#E8D9FF"/>
</svg>
