<svg xmlns="http://www.w3.org/2000/svg" width="120" fill="none" viewBox="0 0 120 26" class="jBIaGv fzobZw cXYYOn"><g fill="white" clip-path="url(#logotype_svg__a)"><path d="M3.686 0H24.65l-3.488 5.625H0z"></path><path fill-rule="evenodd" d="m4.515 6.959-3.09 7.774H13.13l2.276-4.288H8.431l1.52-3.486z" clip-rule="evenodd"></path><path d="m3.652 16.037-2.226 7.867 7.107-7.867zM30.568 21.259l3.59-18.46h13.735l-.749 3.795h-9.087l-.775 4.053h7.41l-.749 3.795h-7.41l-1.316 6.816h-4.648M46.033 21.259l3.588-18.46h4.131l-3.588 18.46zM51.934 21.259l2.581-13.22h4.131l-2.581 13.22zm2.891-14.794.723-3.666h4.131l-.723 3.666zM73.304 12.971c0 4.7-3.253 8.701-7.254 8.701-2.013 0-3.176-1.033-3.563-1.73h-.052L61.3 25.828h-4.131l3.46-17.788h4.13L64.5 9.357h.052c.62-.697 2.143-1.73 4.131-1.73 2.892 0 4.621 1.988 4.621 5.344m-4.286.439c0-1.859-.723-2.685-1.988-2.685-2.246 0-3.64 2.633-3.64 5.19 0 1.832.775 2.659 2.04 2.659 2.246 0 3.588-2.633 3.588-5.163zM73.296 16.87h3.769c-.077 1.316.697 1.961 2.246 1.961 1.369 0 2.092-.49 2.092-1.265 0-1.058-1.42-1.316-2.918-1.781-1.962-.62-3.95-1.42-3.95-3.743 0-2.505 2.35-4.415 6.12-4.415 4.156 0 5.73 2.323 5.499 4.441h-3.795c.077-1.11-.49-1.705-1.937-1.705-1.188 0-1.858.414-1.858 1.137 0 .981 1.213 1.188 2.788 1.678 2.246.697 4.183 1.601 4.183 3.924s-1.859 4.57-6.351 4.57c-4.493 0-6.041-2.401-5.886-4.803zM92.858 11.138l-1.11 5.731c-.284 1.42.231 1.549 1.033 1.549.388 0 .62-.025 1.136-.103l-.568 2.918c-.93.206-1.678.283-2.505.283-2.891 0-3.873-1.317-3.253-4.544l1.137-5.835h-1.834l.594-3.098h1.833l.723-3.691h4.131l-.723 3.691h2.298l-.593 3.098zM99.044 15.76v.207c0 2.04 1.033 2.633 2.427 2.633 1.523 0 2.427-.748 2.582-1.498h4.208c-1.24 2.866-3.641 4.596-7.203 4.596-4.001 0-5.964-2.091-5.964-5.964 0-4.311 3.02-8.132 8.132-8.132 4.286 0 5.732 2.35 5.732 5.705 0 .749-.104 1.627-.259 2.454zm.386-2.556h5.525c.31-1.73-.516-2.633-2.04-2.633-1.833 0-2.97 1.085-3.485 2.633M119.998 8.04l-.723 3.614a6.5 6.5 0 0 0-.955-.077c-2.143 0-3.563 1.033-4.156 3.718l-1.162 5.964h-4.131l2.581-13.218h4.132l-.414 2.168h.027c1.006-1.471 2.169-2.271 3.872-2.271.104 0 .465 0 .93.103z"></path></g><defs><clipPath id="logotype_svg__a"><path d="M0 0h120v25.9H0z"></path></clipPath></defs></svg>