<svg xmlns="http://www.w3.org/2000/svg" fill="white" viewBox="0 0 24 24" width="20" height="20"><path d="M9.241 3.907c-.952 0-1.724.788-1.724 1.76 0 .971.772 1.759 1.724 1.759h1.725v4.222H3.724c-.952 0-1.724-.787-1.724-1.76v-.703c0-.971.772-1.76 1.724-1.76h2.937a3.2 3.2 0 0 1-.523-1.758c0-1.75 1.39-3.167 3.103-3.167.975 0 1.845.459 2.414 1.176A3.07 3.07 0 0 1 14.07 2.5c1.714 0 3.103 1.418 3.103 3.167 0 .65-.192 1.256-.522 1.759h3.626c.952 0 1.724.788 1.724 1.76v.703c0 .972-.772 1.76-1.724 1.76h-7.931V7.425h1.724c.952 0 1.724-.788 1.724-1.76 0-.971-.772-1.759-1.724-1.759s-1.724.788-1.724 1.76v1.759h-1.38v-1.76c0-.971-.771-1.759-1.724-1.759M10.966 13.056H3.379v6.333c0 1.166.927 2.111 2.07 2.111h5.517zM12.345 13.056V21.5h6.207c1.142 0 2.069-.945 2.069-2.111v-6.333z"></path></svg>