<svg xmlns="http://www.w3.org/2000/svg" fill="white" viewBox="0 0 24 24" width="20" height="20"><path d="M12.332 2.006c1.658.054 3.28.52 4.715 1.36l.284.171a10 10 0 0 1 3.384 3.554l.008.016A9.96 9.96 0 0 1 21.999 12L22 12c0 .86-.11 1.694-.314 2.491l-.001.013a10.01 10.01 0 0 1-9.27 7.487L12 22l-.415-.009a10 10 0 0 1-9.156-7.088l-.113-.4v-.001A10 10 0 0 1 2 11.999v-.001a9.96 9.96 0 0 1 1.296-4.925 10 10 0 0 1 3.373-3.536l.284-.172A10 10 0 0 1 12 2zM8.984 17.148q.201.556.44 1.035c.795 1.588 1.75 2.279 2.576 2.279s1.78-.69 2.575-2.28q.24-.477.44-1.033c-.994.157-2.002.236-3.015.235h-.001c-1.026 0-2.033-.082-3.015-.236m-4.52-1.298a8.5 8.5 0 0 0 2.354 2.84l.283.21c.45.32.93.591 1.43.816a9 9 0 0 1-.482-.845 12 12 0 0 1-.795-2.079 19 19 0 0 1-2.79-.942m15.07 0q-1.36.579-2.789.943a12 12 0 0 1-.794 2.078q-.222.442-.482.845c.5-.225.98-.497 1.43-.817l.283-.209a8.5 8.5 0 0 0 2.352-2.84m-3.738-5.183c-1.222.37-2.5.564-3.796.563h-.001c-1.32 0-2.594-.199-3.796-.563q-.05.651-.049 1.333l.005.457c.028 1.085.153 2.111.356 3.045.943.188 1.913.303 2.904.335l.581.01h.001c1.174.002 2.34-.116 3.483-.345.203-.934.33-1.96.357-3.045l.005-.457q0-.682-.05-1.333M4.222 8.663A8.4 8.4 0 0 0 3.538 12v.002q0 .908.192 1.795c.994.527 2.044.961 3.14 1.293a18 18 0 0 1-.249-2.596L6.615 12q0-.967.093-1.888a13 13 0 0 1-2.486-1.449m15.555.001c-.776.576-1.61 1.06-2.486 1.448q.093.92.094 1.888l-.007.493c-.023.9-.11 1.77-.25 2.596a17.6 17.6 0 0 0 3.142-1.293c.124-.579.192-1.18.192-1.796v-.001a8.4 8.4 0 0 0-.685-3.335m-7.933-5.117c-.789.081-1.674.78-2.42 2.27-.451.905-.81 2.03-1.028 3.301.971.32 2 .513 3.066.562l.538.012h.001a11.5 11.5 0 0 0 3.603-.576c-.22-1.27-.577-2.395-1.029-3.299C13.781 4.23 12.826 3.538 12 3.538zm-3.312.733q-.411.185-.803.413l-.24.146a8.5 8.5 0 0 0-2.524 2.457c.613.472 1.273.886 1.974 1.23.246-1.273.625-2.427 1.11-3.397q.222-.444.483-.849m6.935 0q.261.406.484.849c.485.97.862 2.124 1.108 3.395.695-.34 1.357-.75 1.976-1.227a8.46 8.46 0 0 0-3.568-3.017"></path></svg>